# xmcd CD database file
#
# Track frame offsets:
#	150
#	18685
#	31353
#	43641
#	57627
#	72745
#	89417
#	107501
#	123317
#	141066
#	154525
#	171518
#	193158
#
# Disc length: 2822 seconds
#
# Revision: 0
# Processed by: cddbd v1.5.1PL2 Copyright (c) Steve Scherf et al.
# Submitted via: CDex 1.51
#
DISCID=be0b040d
DTITLE=Rockin Dopsie JR. and the Zydeco Twisters - Perugia
DYEAR=1900
DGENRE=Jazz
TTITLE0=Feet Don't Fail Me Now
TTITLE1=I've Been Loing You Too Long
TTITLE2=Johnny b Goode
TTITLE3="634 5789"
TTITLE4=Keep The Train Rolling
TTITLE5=Let Me Be Your Chauffeur
TTITLE6=I Got My Mojo Working
TTITLE7=Heat Seeking Missile
TTITLE8=Worried Life Blues
TTITLE9=New Orleans
TTITLE10=Don't You Lie To Me
TTITLE11=Moutain Jack Blues
TTITLE12=Jambalaya
EXTD=
EXTT0=
EXTT1=
EXTT2=
EXTT3=
EXTT4=
EXTT5=
EXTT6=
EXTT7=
EXTT8=
EXTT9=
EXTT10=
EXTT11=
EXTT12=
PLAYORDER=
